<svg width="1600" height="1600" xmlns="http://www.w3.org/2000/svg" clip-rule="evenodd" xml:space="preserve" version="1.1">
 <!-- <rect width="1600" height="1600" fill-opacity="0.3" /> -->

 <g id="svg_1" transform="matrix(1.25 0 0 1.25 80 500)">
  <title>Layer 1</title>
  <g id="svg_1" transform="matrix(1 0 0 1 654.172 668.359)">
   <path id="svg_2" fill-rule="nonzero" fill="rgb(165,43,0)" d="m-24,-309.648c-114.597,0 -218.172,13.779 -296.172,36.229l0,-5.071c-78,25.095 -127.681,59.959 -127.681,98.506c0,6.077 1.345,12.062 3.703,17.931l-7.984,14.321c0,0 -6.413,8.359 4.935,25.999c10.01,15.554 60.164,76.438 86.628,108.32c11.367,16.348 19.083,26.413 19.757,25.44c1.061,-1.543 -7.064,-32.229 -29.639,-67.242c-10.533,-18.805 -23.358,-43.719 -30.908,-62.12c21.081,13.342 49.189,25.445 81.189,35.861l0,-0.159c78,22.453 181.575,36.229 296.172,36.229c131.156,0 248.828,-18.046 327.828,-46.491l0,-171.258c-79,-28.447 -196.672,-46.495 -327.828,-46.495"/>
  </g>
  <g id="svg_3" transform="matrix(1 0 0 1 1099.87 554.94)">
   <path id="svg_4" fill-rule="nonzero" fill="rgb(165,43,0)" d="m-24,-37.399l-13.433,-27.828c0.071,-1.056 0.124,-2.114 0.124,-3.175c0,-31.548 -32.805,-60.62 -87.997,-83.901l0,167.802c25.751,-10.864 46.645,-22.984 61.586,-36.037c-4.398,17.683 -19.437,53.455 -31.428,78.611c-19.707,35.981 -26.845,67.303 -25.929,68.853c0.584,0.978 7.307,-9.393 17.222,-26.2c23.072,-32.876 66.792,-95.64 75.53,-111.627c9.899,-18.123 4.325,-26.498 4.325,-26.498"/>
  </g>
  <g id="svg_5" transform="matrix(1 0 0 1 1177.87 277.21)">
   <path id="svg_6" fill-rule="nonzero" fill="rgb(247,76,0)" d="m-24,240.175l-88.296,-65.043c-0.83,-2.895 -1.66,-5.787 -2.516,-8.658l29.002,-42.016c2.961,-4.274 3.558,-9.829 1.635,-14.703c-1.925,-4.85 -6.136,-8.327 -11.117,-9.179l-49.043,-8.321c-1.898,-3.879 -3.89,-7.698 -5.889,-11.484l20.604,-47.172c2.119,-4.806 1.673,-10.39 -1.139,-14.751c-2.797,-4.383 -7.551,-6.942 -12.617,-6.743l-49.77,1.809c-2.577,-3.356 -5.194,-6.68 -7.866,-9.946l11.438,-50.56c1.159,-5.132 -0.302,-10.508 -3.879,-14.238c-3.555,-3.716 -8.722,-5.254 -13.636,-4.05l-48.478,11.919c-3.14,-2.775 -6.33,-5.513 -9.559,-8.196l1.745,-51.907c0.188,-5.254 -2.262,-10.247 -6.468,-13.163c-4.204,-2.934 -9.54,-3.376 -14.138,-1.196l-45.226,21.502c-3.64,-2.09 -7.302,-4.16 -11.005,-6.163l-7.991,-51.148c-0.812,-5.181 -4.146,-9.584 -8.815,-11.594c-4.655,-2.022 -9.99,-1.367 -14.077,1.71l-40.321,30.253c-3.97,-1.318 -7.958,-2.583 -11.996,-3.792l-17.38,-48.504c-1.766,-4.945 -5.842,-8.576 -10.81,-9.597c-4.953,-1.012 -10.048,0.703 -13.483,4.539l-33.938,37.971c-4.104,-0.471 -8.21,-0.901 -12.327,-1.259l-26.208,-44.154c-2.656,-4.472 -7.344,-7.193 -12.397,-7.193c-5.041,0 -9.739,2.721 -12.372,7.193l-26.214,44.154c-4.119,0.358 -8.244,0.788 -12.341,1.259l-33.943,-37.971c-3.437,-3.836 -8.551,-5.551 -13.487,-4.539c-4.966,1.035 -9.045,4.652 -10.806,9.597l-17.393,48.504c-4.027,1.209 -8.017,2.482 -11.997,3.792l-40.308,-30.253c-4.098,-3.088 -9.432,-3.741 -14.098,-1.71c-4.65,2.01 -7.997,6.413 -8.803,11.594l-7.997,51.148c-3.7,2.003 -7.363,4.062 -11.014,6.163l-45.222,-21.502c-4.592,-2.189 -9.952,-1.738 -14.135,1.196c-4.201,2.916 -6.656,7.909 -6.466,13.163l1.736,51.907c-3.219,2.683 -6.403,5.421 -9.558,8.196l-48.47,-11.919c-4.925,-1.195 -10.086,0.334 -13.65,4.05c-3.585,3.73 -5.039,9.106 -3.885,14.238l11.415,50.56c-2.649,3.279 -5.27,6.59 -7.839,9.946l-49.771,-1.809c-5.023,-0.148 -9.817,2.36 -12.623,6.743c-2.812,4.361 -3.237,9.945 -1.146,14.751l20.619,47.172c-2.003,3.786 -3.992,7.605 -5.906,11.484l-49.04,8.321c-4.982,0.841 -9.183,4.316 -11.12,9.179c-1.925,4.874 -1.3,10.429 1.639,14.703l29.01,42.016c-0.224,0.741 -0.43,1.49 -0.653,2.233l-82.021,87.122c0,0 -12.56,9.851 5.73,33.002c16.14,20.421 98.993,101.376 142.752,143.789c18.483,21.532 31.143,34.866 32.466,33.712c2.088,-1.832 -8.871,-41.006 -45.275,-86.97c-28.06,-41.239 -64.478,-104.666 -55.939,-111.977c0,0 9.714,-12.331 29.204,-21.207c0.713,0.571 -0.737,-0.565 0,0c0,0 411.314,189.736 792.846,3.21c43.584,-7.817 69.968,15.529 69.968,15.529c9.099,5.276 -14.463,70.495 -33.838,113.666c-26.353,49.023 -30.217,87.276 -27.982,88.602c1.409,0.842 10.998,-13.747 24.674,-36.966c33.745,-47.023 97.539,-136.665 109.214,-158.438c13.239,-24.687 0,-31.606 0,-31.606"/>
  </g>
  <g id="svg_7" transform="matrix(1 0 0 1 795.856 464.937)">
   <path id="svg_8" fill-rule="nonzero" d="m-24,172.631c1.575,-1.342 2.4,-2.139 2.4,-2.139l-134.65,-12.507c109.902,-144.985 197.868,-28.018 207.238,-15.106l0,29.752l-74.988,0z"/>
  </g>
  <g id="svg_9" transform="matrix(1 0 0 1 278.418 211.791)">
   <path id="svg_10" fill-rule="nonzero" fill="rgb(247,76,0)" d="m-24,266.04c0,0 -111.096,-43.25 -129.876,-89.798c0,0 130.391,-103.717 -25.621,-213.886l-4.229,140.417c0,0 -46.226,-44.594 -44.186,-122.683c0,0 -143.773,69.178 24.476,191.577c0,0 5.676,65.698 156.977,145.017l22.459,-50.644z"/>
  </g>
  <g id="svg_11" transform="matrix(1 0 0 1 729.948 492.523)">
   <path id="svg_12" fill-rule="nonzero" d="m-24,-74.016c0,0 41.104,-45.009 82.21,0c0,0 32.297,60.013 0,90.016c0,0 -52.85,42.009 -82.21,0c0,0 -35.232,-33.006 0,-90.016"/>
  </g>
  <g id="svg_13" transform="matrix(1 0 0 1 777.536 422.196)">
   <path id="svg_14" fill-rule="nonzero" fill="white" d="m-24,13.008c0,17.523 -10.329,31.73 -23.07,31.73c-12.739,0 -23.069,-14.207 -23.069,-31.73c0,-17.529 10.33,-31.738 23.069,-31.738c12.741,0 23.07,14.209 23.07,31.738"/>
  </g>
  <g id="svg_19" transform="matrix(1 0 0 1 1002.23 778.679)">
   <path id="svg_20" fill-rule="nonzero" fill="rgb(247,76,0)" d="m-24,-283.808c0,0 -14.723,58.643 -106.292,120.267l-25.678,6.018c0,0 -83.066,-151.481 -200.749,19.221c0,0 36.677,-21.354 135,4.65c0,0 -45.23,69.226 -136.342,67.099c0,0 87.313,104.749 220.18,-46.554c0,0 140.455,-54.315 151.845,-170.701l-37.964,0z"/>
  </g>
  <g id="svg_21" stroke="null">
   <g id="svg_15" transform="matrix(1.2275 0 0 1.22458 517.25 477.482)" stroke="null">
    <path id="svg_16" fill-rule="nonzero" d="m-34.23735,-92.15951c0,0 70.508,-31.219 89.753,38.463c0,0 20.159,81.218 -57.902,85.802c0,0 -99.541,-19.172 -31.851,-124.265" stroke="null"/>
   </g>
   <g id="svg_17" transform="matrix(1.2275 0 0 1.22458 560.719 400.441)" stroke="null">
    <path id="svg_18" fill-rule="nonzero" fill="white" d="m-33.18472,0.88849c0,18.072 -10.653,32.729 -23.794,32.729c-13.137,0 -23.792,-14.657 -23.792,-32.729c0,-18.078 10.655,-32.731 23.792,-32.731c13.141,0 23.794,14.653 23.794,32.731" stroke="null"/>
   </g>
  </g>
 </g>
 <g>
  <title>Layer 2</title>
  <path stroke="#000" id="svg_32" d="m208.82537,903.96546c-7.74887,0 -8.77295,-18.90604 -14.02546,-47.30573c-5.25252,-28.3997 6.27659,-47.30573 14.02546,-47.30573c7.74887,0 14.02546,21.16997 14.02546,47.30573c0,26.13576 -6.27659,47.30573 -14.02546,47.30573z" opacity="undefined" stroke-width="0" fill="#f74c01"/>
  <g id="svg_22" transform="matrix(4 0 0 4 -140 -100)">
   <path id="svg_23" d="m209.16,116.51l0,18.97a1.09,1.08 -87.1 0 1 -1.19,1.08q-10.87,-1.01 -21.1,0.27q-0.68,0.08 -0.68,-0.6l0,-62.44q0,-0.53 0.53,-0.56q5.2,-0.22 10.62,-0.37q2.3,-0.07 10.31,0.2c4.64,0.16 9.4,-0.34 13.79,-0.15q10.39,0.45 21.72,-0.18q8.22,-0.45 11.47,-0.48q8.23,-0.07 11.46,0.36q3.99,0.54 4.27,0.54q2.76,0 4.23,0.44c2.58,0.77 7.29,1.13 10.19,2.47q1.36,0.62 3.28,1.38c4.38,1.72 7.42,7.43 8.27,11.72q0.36,1.8 0.17,6.42q-0.15,3.93 -1.32,6.19c-4.78,9.25 -18.59,13.45 -28.4,13.23q-2.98,-0.07 -9.47,0.26q-6.57,0.33 -22.36,0.74c-8.41,0.22 -16.76,-0.81 -25.33,0q-0.46,0.04 -0.46,0.51zm-0.29,-27.86l-0.09,10.58a0.49,0.49 0 0 0 0.48,0.49l51.04,0.45a12.89,5.43 0.5 0 0 12.94,-5.32l0,-0.7a12.89,5.43 0.5 0 0 -12.84,-5.54l-51.04,-0.45a0.49,0.49 0 0 0 -0.49,0.49z" fill="#000000"/>
   <path id="svg_24" d="m332.85,119.78a0.9,0.9 0 0 0 0.91,0.96c5.74,-0.08 15.43,-0.45 23.31,-0.23q16.67,0.45 21.68,0.14q16.65,-1.05 33.88,0.23q0.54,0.05 0.54,0.59l0,13.67a0.85,0.85 0 0 1 -0.85,0.85l-102.09,0q-0.45,0 -0.47,-0.45q-0.34,-10.59 0.35,-19.78q0.63,-8.41 0.43,-14.44q-0.48,-14.3 0.13,-28.12a0.86,0.86 0 0 1 0.86,-0.82l20.79,0a1.11,1.1 -90 0 1 1.1,1.11q0,17.61 0.01,34.57c0,3.91 -0.41,8.97 -0.58,11.72z" fill="#000000"/>
   <path id="svg_25" d="m156.43,113.65q5.3,7.67 11.41,17.02c1.38,2.11 2.81,3.37 4.01,5.05a0.69,0.69 0 0 1 -0.57,1.09l-24.87,0q-0.53,0 -0.84,-0.43l-14.82,-20.82q-0.35,-0.49 -0.96,-0.49l-43.37,0a1.02,1.02 0 0 0 -1.02,1.02l0,18.98q0,1.24 -1.24,1.24l-21.3,0a0.86,0.86 0 0 1 -0.86,-0.86l0,-61.73a0.88,0.88 0 0 1 0.86,-0.88c9.21,-0.21 19.88,0.25 29.55,0.12q24.07,-0.33 32.84,-0.11q13.8,0.34 18,0.23c9.56,-0.24 17.37,0.17 24.19,7.35q0.82,0.87 3.72,5.31q1.94,2.96 1.98,5.82c0.13,9.13 -5.06,16.79 -13.2,20.09q-2.25,0.91 -3.32,1.36q-0.49,0.2 -0.19,0.64zm-71.57,-24.85l0.12,11.36a0.3,0.3 0 0 0 0.3,0.29l49.59,-0.52a14.23,5.79 -0.6 0 0 14.17,-5.94l0,-0.38a14.23,5.79 -0.6 0 0 -14.29,-5.64l-49.59,0.52a0.3,0.3 0 0 0 -0.3,0.31z" fill="#000000"/>
  </g>
  <g id="svg_26" transform="matrix(3.6 0 0 3.6 -70 -50)">
   <path fill="#000000" d="m64.37516,242.98149l27.99,7.98l11.43,3.09q8.93,2.7 18.09,5.31c6.93,1.97 8.98,10.65 3.99,15.52c-3.38,3.3 -6.75,3 -11.38,1.72q-5.7,-1.56 -11.08,-3l-19.06,-5.05q-0.17,-0.11 -0.46,-0.34q-0.24,-0.19 -0.5,-0.26q-19.09,-5.18 -21.49,-5.83q-5.87,-1.59 -7.28,-7.49q-0.79,-3.34 1.01,-6.22q1.14,-1.81 1.82,-3.12l6.92,-2.31z" id="svg_7"/>
   <path fill="#000000" d="m271.27516,291.53149a59.44,59.44 0 0 1 -59.44,59.44a59.44,59.44 0 0 1 -59.44,-59.44a59.44,59.44 0 0 1 59.44,-59.44a59.44,59.44 0 0 1 59.44,59.44zm-9.76,-0.05a49.66,49.66 0 0 0 -49.66,-49.66a49.66,49.66 0 0 0 -49.66,49.66a49.66,49.66 0 0 0 49.66,49.66a49.66,49.66 0 0 0 49.66,-49.66z" id="svg_13"/>
   <rect transform="rotate(15.2 141.645 271.361)" fill="#000000" x="136.18517" y="255.08149" width="10.92" height="32.56" rx="5.28" id="svg_14"/>
   <path fill="#000000" d="m185.98516,266.72149q-1.67,1.86 -2.18,2.3q-0.38,0.32 -0.88,0.23c-2.85,-0.53 -4.21,-2.81 -2.29,-5.31c5.66,-7.4 15.46,-12.31 24.39,-13.71c15.87,-2.5 30.18,0.98 39.62,15.06q7.01,10.46 9.06,25.02a2.53,2.53 0 0 1 -1.77,2.77l-0.35,0.11a2.77,2.76 76.6 0 1 -3.53,-2.18c-1.75,-10.13 -4.83,-18.53 -10.99,-26.01c-7.95,-9.65 -21.01,-10.96 -32.49,-8.61c-7.04,1.44 -13.75,4.93 -18.59,10.33z" id="svg_18"/>
  </g>
  <path id="svg_27" d="m137.54535,889.79353c-13.52926,0 -24.48796,-20.36348 -24.48796,-45.50358c0,-25.1401 10.9587,-45.50358 24.48796,-45.50358c13.52926,0 32.43123,25.46986 24.48796,45.50358c-7.94326,20.03371 -10.9587,45.50358 -24.48796,45.50358z" opacity="undefined" stroke-width="0" stroke="#000" fill="#f74c01"/>
  <ellipse stroke="#000" stroke-width="0" ry="41.81563" rx="25.5059" id="svg_29" cy="903.29429" cx="145.72771" fill="#f74c01"/>
  <path stroke="#000" id="svg_33" d="m212.86116,824.45174c-11.49172,0 -20.80002,-13.82758 -20.80002,-30.89867c0,-17.07109 9.3083,-41.95859 20.80002,-41.95859c11.49172,0 20.80002,24.8875 20.80002,41.95859c0,17.07109 -9.3083,30.89867 -20.80002,30.89867z" opacity="undefined" stroke-width="0" fill="#f74c01"/>
  <path stroke="#000" id="svg_34" d="m202.54916,765.50398c-6.73408,0 -12.18868,-10.81959 -12.18868,-24.17711c0,-13.35752 7.59929,-28.64287 12.18868,-24.17711c4.58939,4.46576 12.18868,10.81959 12.18868,24.17711c0,13.35752 -5.4546,24.17711 -12.18868,24.17711z" opacity="undefined" stroke-width="0" fill="#f74c01"/>
  <path stroke="#000" id="svg_35" d="m144.85998,808.51568c-8.06383,0 -14.59553,-15.42774 -14.59553,-34.47433c0,-19.04659 7.17511,-32.33271 14.59553,-34.47433c7.42042,-2.14161 12.66531,17.56935 14.59553,34.47433c1.93022,16.90498 -6.5317,34.47433 -14.59553,34.47433z" opacity="undefined" stroke-width="0" fill="#f74c01"/>
  <path id="svg_36" d="m65.73,72.61275c-0.38873,-0.28901 -0.52772,-0.47184 -0.52885,-0.69565c-0.00103,-0.20403 0.17055,-0.40095 0.34835,-0.39982c0.08879,0.00057 0.27924,0.07566 0.34668,0.1367c0.03398,0.03075 0.05008,0.02772 0.12573,-0.02369c0.2059,-0.13991 0.40696,-0.14285 0.53718,-0.00785c0.20811,0.21576 0.17023,0.47342 -0.10892,0.74069c-0.14841,0.14209 -0.4725,0.39417 -0.50678,0.39417c-0.01043,0 -0.10646,-0.06505 -0.2134,-0.14456l0,0z" stroke-width="0" stroke="#000" fill="#f74c01"/>
  <path id="svg_38" d="m-3.68178,-49.94001c-11.59253,-68.95917 -15.73732,-112.5815 -15.77091,-165.98313c-0.03063,-48.68213 5.0859,-95.66755 10.38828,-95.39659c2.64777,0.13557 8.32741,18.05327 10.3386,32.61585c1.01335,7.33747 1.49332,6.61392 3.74944,-5.65222c6.1402,-33.38319 12.13617,-34.08389 16.01942,-1.87191c6.20626,51.48152 5.07635,112.95985 -3.24813,176.72949c-4.42577,33.90364 -14.09068,94.05061 -15.11282,94.05061c-0.31102,0 -3.17476,-15.52148 -6.36387,-34.49211l0,0.00001z" stroke-width="0" stroke="#000" fill="#f74c01"/>
  <path id="svg_42" d="m982.20408,1404.63012c-9.34453,3.28092 -20.8345,-16.42129 -20.8345,-36.69448c0,-20.27319 9.32373,-36.69448 20.8345,-36.69448c11.51077,0 26.72891,23.20816 25.54905,39.07806c-1.17986,15.8699 -16.20452,31.02999 -25.54905,34.3109z" transform="rotate(-120 984.594 1368.12)" opacity="undefined" stroke-width="0" stroke="#000" fill="#f74c01"/>
  <path id="svg_43" d="m924.20821,1421.2002c-11.51077,0 -20.8345,-18.12347 -20.8345,-40.49812c0,-22.37465 10.16744,-35.72139 20.8345,-40.49812c10.66705,-4.77673 25.38914,13.57972 20.8345,40.49812c-4.55464,26.9184 -9.32373,40.49812 -20.8345,40.49812z" transform="rotate(-105 924.633 1380.32)" opacity="undefined" stroke-width="0" stroke="#000" fill="#f74c01"/>
  <path transform="rotate(-84 1027.21 1288.74)" stroke="#000" id="svg_44" d="m1028.8038,1322.02797c-22.55083,5.63068 -28.11624,-15.13449 -24.63536,-33.82445c3.48088,-18.68996 12.2551,-33.69824 24.63536,-33.69824c12.38027,0 22.40828,15.10867 22.40828,33.76134c0,18.65268 0.14255,28.13066 -22.40828,33.76134z" opacity="undefined" stroke-width="0" fill="#f74c01"/>
  <path transform="rotate(-84 979.505 1286.57)" stroke="#000" id="svg_45" d="m981.16888,1327.7771c-11.51077,0 -20.45116,-17.59499 -23.7182,-40.6047c-3.26704,-23.00971 12.20743,-41.80018 23.7182,-41.80018c11.51078,0 20.8345,18.43867 20.8345,41.20244c0,22.76378 -9.32372,41.20244 -20.8345,41.20244z" opacity="undefined" stroke-width="0" fill="#f74c01"/>
  <path transform="rotate(-103 919.014 1297.33)" stroke="#000" id="svg_46" d="m922.53881,1332.65808c-6.96024,0 -19.64785,-13.8764 -19.64785,-32.87249c0,-18.99608 8.44947,-45.04098 19.64785,-35.89335c11.19838,9.14763 12.59804,15.38684 12.59804,34.38292c0,18.99609 -5.63779,34.38292 -12.59804,34.38292z" opacity="undefined" stroke-width="0" fill="#f74c01"/>
  <path transform="rotate(-120 1041.65 1341.16)" stroke="#000" id="svg_47" d="m1039.25546,1380.58553c-9.34453,3.54281 -20.8345,-17.73205 -20.8345,-39.62348c0,-21.89142 9.32373,-39.62348 20.8345,-39.62348c11.51077,0 26.72891,25.06067 25.54905,42.19732c-1.17985,17.13666 -16.20451,33.50685 -25.54905,37.04964z" opacity="undefined" stroke-width="0" fill="#f74c01"/>
 </g>
</svg>