<?xml version="1.0" encoding="UTF-8" standalone="no"?>
<!DOCTYPE svg PUBLIC "-//W3C//DTD SVG 1.1//EN" "http://www.w3.org/Graphics/SVG/1.1/DTD/svg11.dtd">
<svg xmlns="http://www.w3.org/2000/svg" version="1.1" viewBox="0.00 0.00 475.00 475.00">
<g>
<path fill="#000000" d="
  M 209.16 116.51
  L 209.16 135.48
  A 1.09 1.08 -87.1 0 1 207.97 136.56
  Q 197.10 135.55 186.87 136.83
  Q 186.19 136.91 186.19 136.23
  L 186.19 73.79
  Q 186.19 73.26 186.72 73.23
  Q 191.92 73.01 197.34 72.86
  Q 199.64 72.79 207.65 73.06
  C 212.29 73.22 217.05 72.72 221.44 72.91
  Q 231.83 73.36 243.16 72.73
  Q 251.38 72.28 254.63 72.25
  Q 262.86 72.18 266.09 72.61
  Q 270.08 73.15 270.36 73.15
  Q 273.12 73.15 274.59 73.59
  C 277.17 74.36 281.88 74.72 284.78 76.06
  Q 286.14 76.68 288.06 77.44
  C 292.44 79.16 295.48 84.87 296.33 89.16
  Q 296.69 90.96 296.50 95.58
  Q 296.35 99.51 295.18 101.77
  C 290.40 111.02 276.59 115.22 266.78 115.00
  Q 263.80 114.93 257.31 115.26
  Q 250.74 115.59 234.95 116.00
  C 226.54 116.22 218.19 115.19 209.62 116.00
  Q 209.16 116.04 209.16 116.51
  Z
  M 208.87 88.65
  L 208.78 99.23
  A 0.49 0.49 0.0 0 0 209.26 99.72
  L 260.30 100.17
  A 12.89 5.43 0.5 0 0 273.24 94.85
  L 273.24 94.15
  A 12.89 5.43 0.5 0 0 260.40 88.61
  L 209.36 88.16
  A 0.49 0.49 0.0 0 0 208.87 88.65
  Z"
/>
<path fill="#000000" d="
  M 332.85 119.78
  A 0.90 0.90 0.0 0 0 333.76 120.74
  C 339.50 120.66 349.19 120.29 357.07 120.51
  Q 373.74 120.96 378.75 120.65
  Q 395.40 119.60 412.63 120.88
  Q 413.17 120.93 413.17 121.47
  L 413.17 135.14
  A 0.85 0.85 0.0 0 1 412.32 135.99
  L 310.23 135.99
  Q 309.78 135.99 309.76 135.54
  Q 309.42 124.95 310.11 115.76
  Q 310.74 107.35 310.54 101.32
  Q 310.06 87.02 310.67 73.20
  A 0.86 0.86 0.0 0 1 311.53 72.38
  L 332.32 72.38
  A 1.11 1.10 -90.0 0 1 333.42 73.49
  Q 333.42 91.10 333.43 108.06
  C 333.43 111.97 333.02 117.03 332.85 119.78
  Z"
/>
<path fill="#000000" d="
  M 156.43 113.65
  Q 161.73 121.32 167.84 130.67
  C 169.22 132.78 170.65 134.04 171.85 135.72
  A 0.69 0.69 0.0 0 1 171.28 136.81
  L 146.41 136.81
  Q 145.88 136.81 145.57 136.38
  L 130.75 115.56
  Q 130.40 115.07 129.79 115.07
  L 86.42 115.07
  A 1.02 1.02 0.0 0 0 85.40 116.09
  L 85.40 135.07
  Q 85.40 136.31 84.16 136.31
  L 62.86 136.31
  A 0.86 0.86 0.0 0 1 62.00 135.45
  L 62.00 73.72
  A 0.88 0.88 0.0 0 1 62.86 72.84
  C 72.07 72.63 82.74 73.09 92.41 72.96
  Q 116.48 72.63 125.25 72.85
  Q 139.05 73.19 143.25 73.08
  C 152.81 72.84 160.62 73.25 167.44 80.43
  Q 168.26 81.30 171.16 85.74
  Q 173.10 88.70 173.14 91.56
  C 173.27 100.69 168.08 108.35 159.94 111.65
  Q 157.69 112.56 156.62 113.01
  Q 156.13 113.21 156.43 113.65
  Z
  M 84.86 88.80
  L 84.98 100.16
  A 0.30 0.30 0.0 0 0 85.28 100.45
  L 134.87 99.93
  A 14.23 5.79 -0.6 0 0 149.04 93.99
  L 149.04 93.61
  A 14.23 5.79 -0.6 0 0 134.75 87.97
  L 85.16 88.49
  A 0.30 0.30 0.0 0 0 84.86 88.80
  Z"
/>
<path fill="#f84c00" d="
  M 412.69 330.82
  Q 402.53 324.96 391.30 326.82
  A 2.35 2.32 6.2 0 0 389.54 328.22
  L 385.38 338.18
  Q 384.76 338.78 383.82 339.78
  Q 383.13 340.52 382.46 341.51
  C 372.52 356.30 356.76 367.45 340.67 374.64
  C 339.61 375.12 337.79 376.48 336.83 377.54
  C 327.67 387.81 315.95 397.66 302.80 401.99
  C 288.14 406.82 273.18 403.50 262.24 392.49
  A 0.43 0.43 0.0 0 1 262.47 391.76
  C 265.45 391.22 268.64 391.59 271.57 391.09
  Q 294.19 387.25 308.40 369.41
  A 0.97 0.96 26.7 0 0 307.89 367.88
  Q 296.06 364.76 283.53 363.86
  Q 272.93 363.09 263.88 365.80
  Q 261.96 366.37 263.21 364.81
  Q 264.53 363.17 265.37 361.41
  Q 268.42 357.86 271.56 354.29
  C 284.61 339.47 302.73 331.04 320.22 345.31
  Q 327.14 350.96 331.57 358.17
  Q 331.69 358.38 332.45 358.74
  Q 333.07 359.54 334.52 359.30
  Q 343.87 357.78 350.46 350.67
  Q 357.35 345.93 362.80 339.36
  Q 363.68 338.30 362.38 338.75
  Q 345.91 344.52 327.79 348.92
  Q 325.73 347.50 322.67 344.85
  Q 315.27 338.46 306.07 336.19
  Q 301.25 335.00 293.37 335.98
  C 281.26 337.47 271.48 347.39 263.62 355.75
  Q 255.23 355.57 246.99 355.35
  Q 237.41 355.09 230.40 354.47
  Q 170.85 349.25 115.13 327.16
  Q 113.16 326.37 112.14 326.43
  C 109.66 326.57 107.74 328.88 105.88 330.23
  Q 103.95 330.91 102.84 332.42
  C 101.39 334.40 102.37 337.56 103.22 339.57
  C 108.24 351.53 115.28 362.72 122.89 373.55
  C 129.16 382.46 133.55 389.37 136.70 397.88
  Q 137.52 400.08 137.48 402.06
  Q 137.46 403.02 136.77 402.35
  C 132.58 398.32 127.87 392.57 123.48 388.32
  Q 114.19 379.32 90.90 356.27
  Q 83.00 348.46 77.43 342.03
  C 74.12 338.21 70.40 332.93 74.79 328.28
  Q 80.34 322.40 89.66 312.48
  A 1.28 1.28 0.0 0 0 89.49 310.58
  Q 79.73 303.30 72.16 294.85
  Q 65.63 287.57 61.63 276.89
  Q 61.47 276.47 60.22 275.54
  C 39.12 259.82 18.08 234.47 48.40 212.36
  Q 50.38 210.92 52.51 210.23
  A 0.61 0.61 0.0 0 1 53.31 210.81
  Q 53.30 228.44 62.27 243.81
  Q 61.59 245.12 60.45 246.93
  Q 58.65 249.81 59.44 253.15
  Q 60.85 259.05 66.72 260.64
  Q 69.12 261.29 88.21 266.47
  Q 88.47 266.54 88.71 266.73
  Q 89.00 266.96 89.17 267.07
  Q 85.21 273.13 80.15 277.61
  Q 79.22 278.44 79.87 279.50
  C 84.83 287.63 93.60 294.02 101.91 298.34
  A 0.78 0.78 0.0 0 0 102.89 298.12
  Q 103.26 297.63 102.76 296.93
  Q 95.56 286.74 93.29 283.37
  C 91.31 280.43 91.71 276.29 95.47 274.95
  C 99.62 273.47 104.18 273.37 108.23 272.12
  Q 113.61 273.56 119.31 275.12
  C 123.94 276.40 127.31 276.70 130.69 273.40
  C 135.68 268.53 133.63 259.85 126.70 257.88
  Q 117.54 255.27 108.61 252.57
  C 107.04 248.10 107.92 244.59 112.55 243.39
  Q 112.58 243.38 116.95 243.48
  Q 123.74 243.64 128.49 243.98
  Q 131.34 244.19 132.58 241.89
  Q 133.32 240.49 132.75 237.97
  Q 129.56 224.01 129.50 223.75
  C 128.61 219.48 130.77 215.73 135.71 216.64
  Q 139.82 217.40 150.39 220.27
  A 4.35 4.35 0.0 0 0 155.88 215.91
  Q 155.61 208.64 155.33 200.50
  C 155.27 198.79 155.61 196.58 157.06 195.40
  Q 159.77 193.20 162.79 194.68
  Q 171.59 198.99 176.83 201.35
  A 3.99 3.99 0.0 0 0 182.40 198.36
  Q 183.84 189.60 184.69 183.24
  C 185.30 178.69 189.26 176.03 193.29 178.71
  Q 195.18 179.97 205.48 188.05
  Q 207.76 189.84 210.07 188.42
  Q 211.46 187.58 212.35 185.14
  Q 215.02 177.85 217.08 172.09
  C 217.48 170.96 218.28 169.36 219.29 168.56
  C 222.64 165.94 225.17 168.01 227.60 170.83
  Q 233.04 177.13 236.78 180.96
  C 239.13 183.37 241.76 182.96 243.50 180.02
  Q 249.66 169.62 251.12 167.13
  C 253.25 163.52 257.97 162.78 260.27 166.75
  Q 262.54 170.66 268.71 180.78
  A 3.71 3.71 0.0 0 0 274.66 181.30
  Q 279.27 176.07 285.29 169.55
  C 288.44 166.13 292.65 166.90 294.30 171.29
  Q 294.39 171.54 299.79 186.45
  A 3.85 3.85 0.0 0 0 305.69 188.24
  Q 309.95 185.11 316.84 179.84
  C 320.89 176.73 325.71 176.75 326.75 182.74
  Q 328.38 192.14 329.15 198.16
  A 4.10 4.10 0.0 0 0 335.03 201.31
  Q 339.92 198.90 348.64 194.86
  Q 352.66 193.00 355.07 196.13
  Q 356.33 197.76 356.25 201.45
  Q 356.02 211.63 355.78 216.07
  A 4.11 4.11 0.0 0 0 360.91 220.28
  Q 373.81 216.97 376.29 216.59
  C 382.32 215.67 382.91 221.39 381.79 225.77
  Q 381.17 228.16 378.72 238.73
  C 378.22 240.91 379.19 241.72 380.23 243.37
  Q 380.70 244.12 381.75 244.06
  Q 388.61 243.71 395.47 243.39
  Q 399.84 243.19 401.34 244.25
  C 404.44 246.43 403.99 249.59 402.56 253.01
  Q 400.58 257.76 396.80 266.16
  A 4.01 4.00 -72.1 0 0 399.65 271.73
  Q 406.55 273.13 411.85 273.86
  Q 416.10 274.44 417.66 275.71
  C 420.75 278.25 420.00 281.13 417.84 284.21
  Q 411.02 293.95 409.40 296.41
  C 407.62 299.09 409.29 300.69 411.36 302.20
  Q 432.63 317.66 440.67 323.76
  C 444.84 326.92 441.00 333.99 438.70 337.46
  Q 422.03 362.63 406.54 383.73
  Q 404.13 387.01 400.91 392.15
  C 397.70 397.29 395.99 400.56 393.86 402.44
  A 0.39 0.39 0.0 0 1 393.21 402.18
  Q 393.02 400.12 393.54 397.78
  C 395.31 389.69 397.58 383.57 401.49 375.29
  Q 408.50 360.43 413.53 344.76
  Q 415.88 337.41 415.80 334.53
  Q 415.71 331.68 412.69 330.82
  Z
  M 276.09 290.05
  A 59.44 59.44 0.0 0 0 216.65 230.61
  A 59.44 59.44 0.0 0 0 157.21 290.05
  A 59.44 59.44 0.0 0 0 216.65 349.49
  A 59.44 59.44 0.0 0 0 276.09 290.05
  Z
  M 154.6131 260.6964
  A 5.28 5.28 0.0 0 0 150.9021 254.2167
  L 150.5547 254.1223
  A 5.28 5.28 0.0 0 0 144.0751 257.8333
  L 138.3069 279.0636
  A 5.28 5.28 0.0 0 0 142.0179 285.5433
  L 142.3653 285.6377
  A 5.28 5.28 0.0 0 0 148.8449 281.9267
  L 154.6131 260.6964
  Z
  M 291.73 283.17
  Q 288.89 283.95 286.57 285.70
  Q 280.53 290.89 278.53 300.03
  Q 276.33 310.11 281.26 317.80
  Q 283.89 321.90 287.14 324.33
  C 294.01 329.45 304.05 325.90 310.43 321.42
  C 318.79 315.55 317.70 304.71 314.77 295.73
  C 312.81 289.74 311.44 287.41 306.50 284.53
  Q 299.03 280.17 291.73 283.17
  Z"
/>
<path fill="#f84c00" d="
  M 97.18 249.48
  L 69.19 241.50
  L 70.43 204.13
  Q 70.47 203.10 71.27 203.74
  C 81.03 211.51 88.91 218.44 94.28 230.02
  C 97.53 237.03 97.14 242.49 97.18 249.48
  Z"
/>
<path fill="#000000" d="
  M 69.19 241.50
  L 97.18 249.48
  L 108.61 252.57
  Q 117.54 255.27 126.70 257.88
  C 133.63 259.85 135.68 268.53 130.69 273.40
  C 127.31 276.70 123.94 276.40 119.31 275.12
  Q 113.61 273.56 108.23 272.12
  L 89.17 267.07
  Q 89.00 266.96 88.71 266.73
  Q 88.47 266.54 88.21 266.47
  Q 69.12 261.29 66.72 260.64
  Q 60.85 259.05 59.44 253.15
  Q 58.65 249.81 60.45 246.93
  Q 61.59 245.12 62.27 243.81
  L 69.19 241.50
  Z"
/>
<path fill="#a52c02" d="
  M 263.62 355.75
  Q 261.41 358.14 260.49 360.47
  Q 237.62 360.72 214.26 358.67
  Q 191.03 356.63 168.50 351.87
  C 153.40 348.68 139.49 344.05 126.78 336.74
  Q 124.35 335.35 125.46 337.91
  Q 127.47 342.52 131.88 351.05
  C 136.49 359.97 142.65 368.39 145.17 378.45
  Q 145.81 380.99 144.06 379.04
  C 141.67 376.39 139.46 372.82 137.29 370.21
  Q 123.72 353.85 111.09 337.90
  C 109.23 335.56 107.64 332.77 105.88 330.23
  C 107.74 328.88 109.66 326.57 112.14 326.43
  Q 113.16 326.37 115.13 327.16
  Q 170.85 349.25 230.40 354.47
  Q 237.41 355.09 246.99 355.35
  Q 255.23 355.57 263.62 355.75
  Z"
/>
<path fill="#a52c02" d="
  M 412.69 330.82
  C 401.81 348.67 390.53 363.26 380.28 379.49
  Q 378.85 381.77 379.23 379.11
  C 380.03 373.50 382.92 366.76 385.52 361.73
  Q 393.11 347.03 398.47 331.58
  Q 398.93 330.25 397.67 330.87
  Q 395.71 331.84 394.11 333.36
  Q 392.41 334.98 385.38 338.18
  L 389.54 328.22
  A 2.35 2.32 6.2 0 1 391.30 326.82
  Q 402.53 324.96 412.69 330.82
  Z"
/>
<path fill="#000000" d="
  M 327.79 348.92
  Q 329.93 352.52 332.43 354.56
  Q 332.93 356.52 332.45 358.74
  Q 331.69 358.38 331.57 358.17
  Q 327.14 350.96 320.22 345.31
  C 302.73 331.04 284.61 339.47 271.56 354.29
  Q 268.42 357.86 265.37 361.41
  Q 263.36 360.56 260.49 360.47
  Q 261.41 358.14 263.62 355.75
  C 271.48 347.39 281.26 337.47 293.37 335.98
  Q 301.25 335.00 306.07 336.19
  Q 315.27 338.46 322.67 344.85
  Q 325.73 347.50 327.79 348.92
  Z"
/>
<path fill="#a52c02" d="
  M 350.46 350.67
  L 332.43 354.56
  Q 329.93 352.52 327.79 348.92
  Q 345.91 344.52 362.38 338.75
  Q 363.68 338.30 362.80 339.36
  Q 357.35 345.93 350.46 350.67
  Z"
/>
</g>
<g>
<path fill="#000000" d="
  M 276.09 290.05
  A 59.44 59.44 0.0 0 1 216.65 349.49
  A 59.44 59.44 0.0 0 1 157.21 290.05
  A 59.44 59.44 0.0 0 1 216.65 230.61
  A 59.44 59.44 0.0 0 1 276.09 290.05
  Z
  M 266.33 290.00
  A 49.66 49.66 0.0 0 0 216.67 240.34
  A 49.66 49.66 0.0 0 0 167.01 290.00
  A 49.66 49.66 0.0 0 0 216.67 339.66
  A 49.66 49.66 0.0 0 0 266.33 290.00
  Z"
/>
<rect fill="#000000" x="-5.46" y="-16.28" transform="translate(146.46,269.88) rotate(15.2)" width="10.92" height="32.56" rx="5.28"/>
<path fill="#000000" d="
  M 286.57 285.70
  Q 282.99 290.56 283.45 296.25
  C 283.90 301.74 289.63 309.69 295.63 304.83
  Q 300.55 300.86 300.21 294.25
  Q 299.75 285.05 291.73 283.17
  Q 299.03 280.17 306.50 284.53
  C 311.44 287.41 312.81 289.74 314.77 295.73
  C 317.70 304.71 318.79 315.55 310.43 321.42
  C 304.05 325.90 294.01 329.45 287.14 324.33
  Q 283.89 321.90 281.26 317.80
  Q 276.33 310.11 278.53 300.03
  Q 280.53 290.89 286.57 285.70
  Z"
/>
</g>
<path fill="#f84c00" d="
  M 266.33 290.00
  A 49.66 49.66 0.0 0 1 216.67 339.66
  A 49.66 49.66 0.0 0 1 167.01 290.00
  A 49.66 49.66 0.0 0 1 216.67 240.34
  A 49.66 49.66 0.0 0 1 266.33 290.00
  Z
  M 190.80 265.24
  C 195.64 259.84 202.35 256.35 209.39 254.91
  C 220.87 252.56 233.93 253.87 241.88 263.52
  C 248.04 271.00 251.12 279.40 252.87 289.53
  A 2.77 2.76 76.6 0 0 256.40 291.71
  L 256.75 291.60
  A 2.53 2.53 0.0 0 0 258.52 288.83
  Q 256.47 274.27 249.46 263.81
  C 240.02 249.73 225.71 246.25 209.84 248.75
  C 200.91 250.15 191.11 255.06 185.45 262.46
  C 183.53 264.96 184.89 267.24 187.74 267.77
  Q 188.24 267.86 188.62 267.54
  Q 189.13 267.10 190.80 265.24
  Z
  M 218.85 284.62
  L 215.08 289.94
  Q 213.86 293.41 212.69 296.88
  C 208.47 309.42 211.09 319.63 223.64 325.88
  Q 229.87 328.99 236.70 326.97
  C 249.43 323.20 252.28 311.97 250.56 299.95
  C 249.43 291.98 244.23 284.47 235.94 282.87
  Q 231.88 282.08 227.21 282.41
  Q 222.47 282.74 218.85 284.62
  Z"
/>
<g>
<path fill="#000000" d="
  M 190.80 265.24
  Q 189.13 267.10 188.62 267.54
  Q 188.24 267.86 187.74 267.77
  C 184.89 267.24 183.53 264.96 185.45 262.46
  C 191.11 255.06 200.91 250.15 209.84 248.75
  C 225.71 246.25 240.02 249.73 249.46 263.81
  Q 256.47 274.27 258.52 288.83
  A 2.53 2.53 0.0 0 1 256.75 291.60
  L 256.40 291.71
  A 2.77 2.76 76.6 0 1 252.87 289.53
  C 251.12 279.40 248.04 271.00 241.88 263.52
  C 233.93 253.87 220.87 252.56 209.39 254.91
  C 202.35 256.35 195.64 259.84 190.80 265.24
  Z"
/>
<path fill="#000000" d="
  M 215.08 289.94
  C 214.00 294.85 214.04 301.13 218.02 304.75
  C 223.49 309.74 229.80 305.08 231.06 299.11
  C 231.82 295.49 231.63 291.09 229.68 287.88
  Q 225.75 281.43 218.85 284.62
  Q 222.47 282.74 227.21 282.41
  Q 231.88 282.08 235.94 282.87
  C 244.23 284.47 249.43 291.98 250.56 299.95
  C 252.28 311.97 249.43 323.20 236.70 326.97
  Q 229.87 328.99 223.64 325.88
  C 211.09 319.63 208.47 309.42 212.69 296.88
  Q 213.86 293.41 215.08 289.94
  Z"
/>
</g>
</svg>
