<svg width="1600" height="1600" xmlns="http://www.w3.org/2000/svg" version="1.1" xml:space="preserve" clip-rule="evenodd">
<!-- <rect width="1600" height="1600" fill-opacity="0.3" /> -->
 <g transform="matrix(1.25 0 0 1.25 80 500)" id="svg_1">
  <title>Layer 1</title>
  <g transform="matrix(1 0 0 1 654.172 668.359)" id="svg_1">
   <path d="m-24,-309.648c-114.597,0 -218.172,13.779 -296.172,36.229l0,-5.071c-78,25.095 -127.681,59.959 -127.681,98.506c0,6.077 1.345,12.062 3.703,17.931l-7.984,14.321c0,0 -6.413,8.359 4.935,25.999c10.01,15.554 60.164,76.438 86.628,108.32c11.367,16.348 19.083,26.413 19.757,25.44c1.061,-1.543 -7.064,-32.229 -29.639,-67.242c-10.533,-18.805 -23.358,-43.719 -30.908,-62.12c21.081,13.342 49.189,25.445 81.189,35.861l0,-0.159c78,22.453 181.575,36.229 296.172,36.229c131.156,0 248.828,-18.046 327.828,-46.491l0,-171.258c-79,-28.447 -196.672,-46.495 -327.828,-46.495" fill="rgb(165,43,0)" fill-rule="nonzero" id="svg_2"/>
  </g>
  <g transform="matrix(1 0 0 1 1099.87 554.94)" id="svg_3">
   <path d="m-24,-37.399l-13.433,-27.828c0.071,-1.056 0.124,-2.114 0.124,-3.175c0,-31.548 -32.805,-60.62 -87.997,-83.901l0,167.802c25.751,-10.864 46.645,-22.984 61.586,-36.037c-4.398,17.683 -19.437,53.455 -31.428,78.611c-19.707,35.981 -26.845,67.303 -25.929,68.853c0.584,0.978 7.307,-9.393 17.222,-26.2c23.072,-32.876 66.792,-95.64 75.53,-111.627c9.899,-18.123 4.325,-26.498 4.325,-26.498" fill="rgb(165,43,0)" fill-rule="nonzero" id="svg_4"/>
  </g>
  <g transform="matrix(1 0 0 1 1177.87 277.21)" id="svg_5">
   <path d="m-24,240.175l-88.296,-65.043c-0.83,-2.895 -1.66,-5.787 -2.516,-8.658l29.002,-42.016c2.961,-4.274 3.558,-9.829 1.635,-14.703c-1.925,-4.85 -6.136,-8.327 -11.117,-9.179l-49.043,-8.321c-1.898,-3.879 -3.89,-7.698 -5.889,-11.484l20.604,-47.172c2.119,-4.806 1.673,-10.39 -1.139,-14.751c-2.797,-4.383 -7.551,-6.942 -12.617,-6.743l-49.77,1.809c-2.577,-3.356 -5.194,-6.68 -7.866,-9.946l11.438,-50.56c1.159,-5.132 -0.302,-10.508 -3.879,-14.238c-3.555,-3.716 -8.722,-5.254 -13.636,-4.05l-48.478,11.919c-3.14,-2.775 -6.33,-5.513 -9.559,-8.196l1.745,-51.907c0.188,-5.254 -2.262,-10.247 -6.468,-13.163c-4.204,-2.934 -9.54,-3.376 -14.138,-1.196l-45.226,21.502c-3.64,-2.09 -7.302,-4.16 -11.005,-6.163l-7.991,-51.148c-0.812,-5.181 -4.146,-9.584 -8.815,-11.594c-4.655,-2.022 -9.99,-1.367 -14.077,1.71l-40.321,30.253c-3.97,-1.318 -7.958,-2.583 -11.996,-3.792l-17.38,-48.504c-1.766,-4.945 -5.842,-8.576 -10.81,-9.597c-4.953,-1.012 -10.048,0.703 -13.483,4.539l-33.938,37.971c-4.104,-0.471 -8.21,-0.901 -12.327,-1.259l-26.208,-44.154c-2.656,-4.472 -7.344,-7.193 -12.397,-7.193c-5.041,0 -9.739,2.721 -12.372,7.193l-26.214,44.154c-4.119,0.358 -8.244,0.788 -12.341,1.259l-33.943,-37.971c-3.437,-3.836 -8.551,-5.551 -13.487,-4.539c-4.966,1.035 -9.045,4.652 -10.806,9.597l-17.393,48.504c-4.027,1.209 -8.017,2.482 -11.997,3.792l-40.308,-30.253c-4.098,-3.088 -9.432,-3.741 -14.098,-1.71c-4.65,2.01 -7.997,6.413 -8.803,11.594l-7.997,51.148c-3.7,2.003 -7.363,4.062 -11.014,6.163l-45.222,-21.502c-4.592,-2.189 -9.952,-1.738 -14.135,1.196c-4.201,2.916 -6.656,7.909 -6.466,13.163l1.736,51.907c-3.219,2.683 -6.403,5.421 -9.558,8.196l-48.47,-11.919c-4.925,-1.195 -10.086,0.334 -13.65,4.05c-3.585,3.73 -5.039,9.106 -3.885,14.238l11.415,50.56c-2.649,3.279 -5.27,6.59 -7.839,9.946l-49.771,-1.809c-5.023,-0.148 -9.817,2.36 -12.623,6.743c-2.812,4.361 -3.237,9.945 -1.146,14.751l20.619,47.172c-2.003,3.786 -3.992,7.605 -5.906,11.484l-49.04,8.321c-4.982,0.841 -9.183,4.316 -11.12,9.179c-1.925,4.874 -1.3,10.429 1.639,14.703l29.01,42.016c-0.224,0.741 -0.43,1.49 -0.653,2.233l-82.021,87.122c0,0 -12.56,9.851 5.73,33.002c16.14,20.421 98.993,101.376 142.752,143.789c18.483,21.532 31.143,34.866 32.466,33.712c2.088,-1.832 -8.871,-41.006 -45.275,-86.97c-28.06,-41.239 -64.478,-104.666 -55.939,-111.977c0,0 9.714,-12.331 29.204,-21.207c0.713,0.571 -0.737,-0.565 0,0c0,0 411.314,189.736 792.846,3.21c43.584,-7.817 69.968,15.529 69.968,15.529c9.099,5.276 -14.463,70.495 -33.838,113.666c-26.353,49.023 -30.217,87.276 -27.982,88.602c1.409,0.842 10.998,-13.747 24.674,-36.966c33.745,-47.023 97.539,-136.665 109.214,-158.438c13.239,-24.687 0,-31.606 0,-31.606" fill="rgb(247,76,0)" fill-rule="nonzero" id="svg_6"/>
  </g>
  <g transform="matrix(1 0 0 1 795.856 464.937)" id="svg_7">
   <path d="m-24,172.631c1.575,-1.342 2.4,-2.139 2.4,-2.139l-134.65,-12.507c109.902,-144.985 197.868,-28.018 207.238,-15.106l0,29.752l-74.988,0z" fill-rule="nonzero" id="svg_8"/>
  </g>
  <g transform="matrix(1 0 0 1 278.418 211.791)" id="svg_9">
   <path d="m-24,266.04c0,0 -111.096,-43.25 -129.876,-89.798c0,0 130.391,-103.717 -25.621,-213.886l-4.229,140.417c0,0 -46.226,-44.594 -44.186,-122.683c0,0 -143.773,69.178 24.476,191.577c0,0 5.676,65.698 156.977,145.017l22.459,-50.644z" fill="rgb(247,76,0)" fill-rule="nonzero" id="svg_10"/>
  </g>
  <g transform="matrix(1 0 0 1 729.948 492.523)" id="svg_11">
   <path d="m-24,-74.016c0,0 41.104,-45.009 82.21,0c0,0 32.297,60.013 0,90.016c0,0 -52.85,42.009 -82.21,0c0,0 -35.232,-33.006 0,-90.016" fill-rule="nonzero" id="svg_12"/>
  </g>
  <g transform="matrix(1 0 0 1 777.536 422.196)" id="svg_13">
   <path d="m-24,13.008c0,17.523 -10.329,31.73 -23.07,31.73c-12.739,0 -23.069,-14.207 -23.069,-31.73c0,-17.529 10.33,-31.738 23.069,-31.738c12.741,0 23.07,14.209 23.07,31.738" fill="white" fill-rule="nonzero" id="svg_14"/>
  </g>
  <g transform="matrix(1 0 0 1 1002.23 778.679)" id="svg_19">
   <path d="m-24,-283.808c0,0 -14.723,58.643 -106.292,120.267l-25.678,6.018c0,0 -83.066,-151.481 -200.749,19.221c0,0 36.677,-21.354 135,4.65c0,0 -45.23,69.226 -136.342,67.099c0,0 87.313,104.749 220.18,-46.554c0,0 140.455,-54.315 151.845,-170.701l-37.964,0z" fill="rgb(247,76,0)" fill-rule="nonzero" id="svg_20"/>
  </g>
  <g stroke="null" id="svg_21">
   <g stroke="null" transform="matrix(1.2275 0 0 1.22458 517.25 477.482)" id="svg_15">
    <path stroke="null" d="m-34.23735,-92.15951c0,0 70.508,-31.219 89.753,38.463c0,0 20.159,81.218 -57.902,85.802c0,0 -99.541,-19.172 -31.851,-124.265" fill-rule="nonzero" id="svg_16"/>
   </g>
   <g stroke="null" transform="matrix(1.2275 0 0 1.22458 560.719 400.441)" id="svg_17">
    <path stroke="null" d="m-33.18472,0.88849c0,18.072 -10.653,32.729 -23.794,32.729c-13.137,0 -23.792,-14.657 -23.792,-32.729c0,-18.078 10.655,-32.731 23.792,-32.731c13.141,0 23.794,14.653 23.794,32.731" fill="white" fill-rule="nonzero" id="svg_18"/>
   </g>
  </g>
 </g>
 
<g transform="matrix(4 0 0 4 -140 -100)">
<path fill="#000000" d="
  M 209.16 116.51
  L 209.16 135.48
  A 1.09 1.08 -87.1 0 1 207.97 136.56
  Q 197.10 135.55 186.87 136.83
  Q 186.19 136.91 186.19 136.23
  L 186.19 73.79
  Q 186.19 73.26 186.72 73.23
  Q 191.92 73.01 197.34 72.86
  Q 199.64 72.79 207.65 73.06
  C 212.29 73.22 217.05 72.72 221.44 72.91
  Q 231.83 73.36 243.16 72.73
  Q 251.38 72.28 254.63 72.25
  Q 262.86 72.18 266.09 72.61
  Q 270.08 73.15 270.36 73.15
  Q 273.12 73.15 274.59 73.59
  C 277.17 74.36 281.88 74.72 284.78 76.06
  Q 286.14 76.68 288.06 77.44
  C 292.44 79.16 295.48 84.87 296.33 89.16
  Q 296.69 90.96 296.50 95.58
  Q 296.35 99.51 295.18 101.77
  C 290.40 111.02 276.59 115.22 266.78 115.00
  Q 263.80 114.93 257.31 115.26
  Q 250.74 115.59 234.95 116.00
  C 226.54 116.22 218.19 115.19 209.62 116.00
  Q 209.16 116.04 209.16 116.51
  Z
  M 208.87 88.65
  L 208.78 99.23
  A 0.49 0.49 0.0 0 0 209.26 99.72
  L 260.30 100.17
  A 12.89 5.43 0.5 0 0 273.24 94.85
  L 273.24 94.15
  A 12.89 5.43 0.5 0 0 260.40 88.61
  L 209.36 88.16
  A 0.49 0.49 0.0 0 0 208.87 88.65
  Z"
/>
<path fill="#000000" d="
  M 332.85 119.78
  A 0.90 0.90 0.0 0 0 333.76 120.74
  C 339.50 120.66 349.19 120.29 357.07 120.51
  Q 373.74 120.96 378.75 120.65
  Q 395.40 119.60 412.63 120.88
  Q 413.17 120.93 413.17 121.47
  L 413.17 135.14
  A 0.85 0.85 0.0 0 1 412.32 135.99
  L 310.23 135.99
  Q 309.78 135.99 309.76 135.54
  Q 309.42 124.95 310.11 115.76
  Q 310.74 107.35 310.54 101.32
  Q 310.06 87.02 310.67 73.20
  A 0.86 0.86 0.0 0 1 311.53 72.38
  L 332.32 72.38
  A 1.11 1.10 -90.0 0 1 333.42 73.49
  Q 333.42 91.10 333.43 108.06
  C 333.43 111.97 333.02 117.03 332.85 119.78
  Z"
/>
<path fill="#000000" d="
  M 156.43 113.65
  Q 161.73 121.32 167.84 130.67
  C 169.22 132.78 170.65 134.04 171.85 135.72
  A 0.69 0.69 0.0 0 1 171.28 136.81
  L 146.41 136.81
  Q 145.88 136.81 145.57 136.38
  L 130.75 115.56
  Q 130.40 115.07 129.79 115.07
  L 86.42 115.07
  A 1.02 1.02 0.0 0 0 85.40 116.09
  L 85.40 135.07
  Q 85.40 136.31 84.16 136.31
  L 62.86 136.31
  A 0.86 0.86 0.0 0 1 62.00 135.45
  L 62.00 73.72
  A 0.88 0.88 0.0 0 1 62.86 72.84
  C 72.07 72.63 82.74 73.09 92.41 72.96
  Q 116.48 72.63 125.25 72.85
  Q 139.05 73.19 143.25 73.08
  C 152.81 72.84 160.62 73.25 167.44 80.43
  Q 168.26 81.30 171.16 85.74
  Q 173.10 88.70 173.14 91.56
  C 173.27 100.69 168.08 108.35 159.94 111.65
  Q 157.69 112.56 156.62 113.01
  Q 156.13 113.21 156.43 113.65
  Z
  M 84.86 88.80
  L 84.98 100.16
  A 0.30 0.30 0.0 0 0 85.28 100.45
  L 134.87 99.93
  A 14.23 5.79 -0.6 0 0 149.04 93.99
  L 149.04 93.61
  A 14.23 5.79 -0.6 0 0 134.75 87.97
  L 85.16 88.49
  A 0.30 0.30 0.0 0 0 84.86 88.80
  Z"
/>
</g>

<g transform="matrix(3.6 0 0 3.6 -70 -50)">
<path id="svg_7" d="m69.19,241.5l27.99,7.98l11.43,3.09q8.93,2.7 18.09,5.31c6.93,1.97 8.98,10.65 3.99,15.52c-3.38,3.3 -6.75,3 -11.38,1.72q-5.7,-1.56 -11.08,-3l-19.06,-5.05q-0.17,-0.11 -0.46,-0.34q-0.24,-0.19 -0.5,-0.26q-19.09,-5.18 -21.49,-5.83q-5.87,-1.59 -7.28,-7.49q-0.79,-3.34 1.01,-6.22q1.14,-1.81 1.82,-3.12l6.92,-2.31z" fill="#000000"/>
  <path id="svg_13" d="m276.09,290.05a59.44,59.44 0 0 1 -59.44,59.44a59.44,59.44 0 0 1 -59.44,-59.44a59.44,59.44 0 0 1 59.44,-59.44a59.44,59.44 0 0 1 59.44,59.44zm-9.76,-0.05a49.66,49.66 0 0 0 -49.66,-49.66a49.66,49.66 0 0 0 -49.66,49.66a49.66,49.66 0 0 0 49.66,49.66a49.66,49.66 0 0 0 49.66,-49.66z" fill="#000000"/>
  <rect transform="rotate(15.2 146.46 269.88)" id="svg_14" rx="5.28" height="32.56" width="10.92" y="253.6" x="141.00001" fill="#000000"/>
  <path id="svg_18" d="m190.8,265.24q-1.67,1.86 -2.18,2.3q-0.38,0.32 -0.88,0.23c-2.85,-0.53 -4.21,-2.81 -2.29,-5.31c5.66,-7.4 15.46,-12.31 24.39,-13.71c15.87,-2.5 30.18,0.98 39.62,15.06q7.01,10.46 9.06,25.02a2.53,2.53 0 0 1 -1.77,2.77l-0.35,0.11a2.77,2.76 76.6 0 1 -3.53,-2.18c-1.75,-10.13 -4.83,-18.53 -10.99,-26.01c-7.95,-9.65 -21.01,-10.96 -32.49,-8.61c-7.04,1.44 -13.75,4.93 -18.59,10.33z" fill="#000000"/>
</g>

</svg>